<svg xmlns="http://www.w3.org/2000/svg" xmlns:xlink="http://www.w3.org/1999/xlink" width="80" zoomAndPan="magnify" viewBox="0 0 60 60" height="80" preserveAspectRatio="xMidYMid meet" version="1.0"><defs><g/></defs><path fill="#004aad" d="M 60 30 C 60 46.574219 46.574219 60 30 60 C 13.425781 60 0 46.574219 0 30 C 0 13.425781 13.425781 0 30 0 C 46.574219 0 60 13.425781 60 30 Z M 60 30 " fill-opacity="1" fill-rule="nonzero"/><path fill="#ffffff" d="M 34.601562 47.308594 L 34.601562 27.558594 L 38.964844 31.933594 C 39.421875 32.378906 40.144531 32.378906 40.601562 31.933594 L 45.492188 27.042969 C 45.9375 26.585938 45.9375 25.851562 45.492188 25.410156 L 30.804688 10.722656 C 30.347656 10.277344 29.617188 10.277344 29.171875 10.722656 L 14.484375 25.410156 C 14.039062 25.851562 14.039062 26.585938 14.484375 27.042969 L 19.375 31.933594 C 19.820312 32.378906 20.554688 32.378906 21.007812 31.933594 L 25.371094 27.558594 L 25.371094 47.308594 C 25.371094 47.945312 25.890625 48.460938 26.527344 48.460938 L 33.449219 48.460938 C 34.085938 48.460938 34.601562 47.945312 34.601562 47.308594 Z M 34.601562 47.308594 " fill-opacity="1" fill-rule="nonzero"/><g fill="#004aad" fill-opacity="1"><g transform="translate(41.98424, 42.159492)"><g><path d="M 3.40625 0 L 3.171875 -0.59375 L 3.140625 -0.59375 C 2.941406 -0.34375 2.734375 -0.164062 2.515625 -0.0625 C 2.304688 0.03125 2.03125 0.078125 1.6875 0.078125 C 1.269531 0.078125 0.941406 -0.0390625 0.703125 -0.28125 C 0.460938 -0.519531 0.34375 -0.863281 0.34375 -1.3125 C 0.34375 -1.769531 0.503906 -2.109375 0.828125 -2.328125 C 1.148438 -2.546875 1.640625 -2.671875 2.296875 -2.703125 L 3.046875 -2.71875 L 3.046875 -2.90625 C 3.046875 -3.351562 2.820312 -3.578125 2.375 -3.578125 C 2.019531 -3.578125 1.609375 -3.472656 1.140625 -3.265625 L 0.75 -4.0625 C 1.25 -4.320312 1.804688 -4.453125 2.421875 -4.453125 C 3.003906 -4.453125 3.453125 -4.320312 3.765625 -4.0625 C 4.078125 -3.8125 4.234375 -3.425781 4.234375 -2.90625 L 4.234375 0 Z M 3.046875 -2.03125 L 2.59375 -2.015625 C 2.238281 -2.003906 1.976562 -1.941406 1.8125 -1.828125 C 1.644531 -1.710938 1.5625 -1.535156 1.5625 -1.296875 C 1.5625 -0.960938 1.753906 -0.796875 2.140625 -0.796875 C 2.410156 -0.796875 2.628906 -0.875 2.796875 -1.03125 C 2.960938 -1.1875 3.046875 -1.398438 3.046875 -1.671875 Z M 3.046875 -2.03125 "/></g></g></g></svg>